<svg xmlns="http://www.w3.org/2000/svg" version="1.1" xmlns:xlink="http://www.w3.org/1999/xlink" xmlns:svgjs="http://svgjs.dev/svgjs" width="2000" height="2000" viewBox="0 0 2000 2000"><rect width="2000" height="2000" fill="#ffffff"></rect><g transform="matrix(0.75,0,0,0.75,249.090909090909,565.0092463690045)"><svg viewBox="0 0 396 98" data-background-color="#ffffff" preserveAspectRatio="xMidYMid meet" height="2000" width="2000" xmlns="http://www.w3.org/2000/svg" xmlns:xlink="http://www.w3.org/1999/xlink"><g id="tight-bounds" transform="matrix(1,0,0,1,0.2400000000000091,-0.06857258883249528)"><svg viewBox="0 0 395.52 98.13714517766498" height="98.13714517766498" width="395.52"><g><svg viewBox="0 0 395.52 98.13714517766498" height="98.13714517766498" width="395.52"><g><svg viewBox="0 0 395.52 98.13714517766498" height="98.13714517766498" width="395.52"><g id="textblocktransform"><svg viewBox="0 0 395.52 98.13714517766498" height="98.13714517766498" width="395.52" id="textblock"><g><svg viewBox="0 0 395.52 98.13714517766498" height="98.13714517766498" width="395.52"><g transform="matrix(1,0,0,1,0,0)"><svg width="395.52" viewBox="-12.6 -26.95 246.25 58.099999999999994" height="98.13714517766498" data-palette-color="#a437db"><svg></svg><svg></svg><g class="wordmark-text-0" data-fill-palette-color="primary" id="text-0"><path d="M27.9-15.55l-1 5.95h-6.6l-1.7 9.6h-8.4l4.6-26.45h16.65l-2.3 7.5h-7.25l-0.6 3.4zM9-2.4l-0.4 2.25-21.2-2.25zM10.7-12.05l-0.4 2.25-21.2-2.25zM11.55-16.85l-0.4 2.25-21.2-2.25zM12.4-21.65l-0.4 2.25-21.2-2.25zM13.2-26.45l-0.35 2.25-21.2-2.25zM9.85-7.25l-0.4 2.25-21.2-2.25zM62.35 0h-8.75l-0.2-4.05h-6.3l-1.55 4.05h-8.65l11.1-26.45h12.4zM49.75-11.2h3.65v-7.6h-0.7zM36.25-2.4l-0.95 2.2-20.5-2.2zM38.3-7.25l-0.95 2.2-20.5-2.2zM40.3-12.05l-0.9 2.2-20.5-2.2zM42.35-16.85l-0.95 2.2-20.45-2.2zM44.35-21.65l-0.9 2.2-20.45-2.2zM46.35-26.45l-0.9 2.15-20.4-2.15zM74.2-0.15l-20.9-2.25h21.6zM57.15-21.65h21.55c-0.2 0.533-0.417 1.283-0.65 2.25v0zM77.45-15v0 0.4l-21.2-2.25h21.3c-0.067 0.8-0.1 1.417-0.1 1.85zM76.5-7.25l-0.7 2.2-20.85-2.2zM60.6-26.45h21.55c-0.9 0.667-1.583 1.367-2.05 2.1v0zM58.2-12.05h19.7c0.3 0.867 0.783 1.617 1.45 2.25v0zM100.25-25.9l-2.4 7.3c-2.267-0.533-4.2-0.8-5.8-0.8-1.6 0-2.783 0.05-3.55 0.15v0l-0.25 1.45 2.5 0.3c5.367 0.7 8.05 2.917 8.05 6.65v0c0 0.433-0.1 1.24-0.3 2.42-0.2 1.187-0.533 2.33-1 3.43-0.467 1.1-1.057 1.99-1.77 2.67-0.72 0.687-1.42 1.237-2.1 1.65-0.687 0.42-1.563 0.713-2.63 0.88v0c-1.667 0.267-3.89 0.4-6.67 0.4-2.787 0-5.597-0.383-8.43-1.15v0l2.45-7.4c2.6 0.733 4.877 1.1 6.83 1.1 1.947 0 3.32-0.05 4.12-0.15v0l0.25-1.6-3.15-0.35c-2.7-0.3-4.617-0.933-5.75-1.9-1.133-0.967-1.7-2.35-1.7-4.15v0c0-0.667 0.083-1.5 0.25-2.5v0c0.667-3.567 1.867-6.033 3.6-7.4 1.733-1.367 4.377-2.05 7.93-2.05 3.547 0 6.72 0.35 9.52 1.05zM133.8-26.45l-1.35 7.5h-5.4l-3.3 18.95h-8.8l3.3-18.95h-5.55l1.35-7.5zM113.85-2.4l-0.4 2.25-21.2-2.25zM115.55-12.05l-0.4 2.25-21.2-2.25zM116.4-16.85l-0.4 2.25-21.2-2.25zM111.6-21.65l-0.4 2.25-21.2-2.25zM112.4-26.45l-0.35 2.25-21.2-2.25zM114.7-7.25l-0.4 2.25-21.2-2.25zM161.05-15.55l-0.85 4.8h-7.45l-0.6 3.4h9.25l-1.3 7.35h-17.65l4.6-26.45h17.6l-2.35 7.5h-8.15l-0.6 3.4zM141.2-2.4l-0.4 2.25-21.2-2.25zM142.9-12.05l-0.4 2.25-21.2-2.25zM143.75-16.85l-0.4 2.25-21.2-2.25zM144.6-21.65l-0.4 2.25-21.2-2.25zM145.4-26.45l-0.35 2.25-21.2-2.25zM142.05-7.25l-0.4 2.25-21.2-2.25zM174.05-0.15l-20.9-2.25h21.6zM157-21.65h21.55c-0.2 0.533-0.417 1.283-0.65 2.25v0zM177.3-15v0 0.4l-21.2-2.25h21.3c-0.067 0.8-0.1 1.417-0.1 1.85zM176.35-7.25l-0.7 2.2-20.85-2.2zM160.45-26.45h21.55c-0.9 0.667-1.583 1.367-2.05 2.1v0zM158.05-12.05h19.7c0.3 0.867 0.783 1.617 1.45 2.25v0zM200.1-25.9l-2.4 7.3c-2.267-0.533-4.2-0.8-5.8-0.8-1.6 0-2.783 0.05-3.55 0.15v0l-0.25 1.45 2.5 0.3c5.367 0.7 8.05 2.917 8.05 6.65v0c0 0.433-0.1 1.24-0.3 2.42-0.2 1.187-0.533 2.33-1 3.43-0.467 1.1-1.057 1.99-1.77 2.67-0.72 0.687-1.42 1.237-2.1 1.65-0.687 0.42-1.563 0.713-2.63 0.88v0c-1.667 0.267-3.89 0.4-6.67 0.4-2.787 0-5.597-0.383-8.43-1.15v0l2.45-7.4c2.6 0.733 4.877 1.1 6.83 1.1 1.947 0 3.32-0.05 4.12-0.15v0l0.25-1.6-3.15-0.35c-2.7-0.3-4.617-0.933-5.75-1.9-1.133-0.967-1.7-2.35-1.7-4.15v0c0-0.667 0.083-1.5 0.25-2.5v0c0.667-3.567 1.867-6.033 3.6-7.4 1.733-1.367 4.377-2.05 7.93-2.05 3.547 0 6.72 0.35 9.52 1.05zM233.65-26.45l-1.35 7.5h-5.4l-3.3 18.95h-8.8l3.3-18.95h-5.55l1.35-7.5zM213.7-2.4l-0.4 2.25-21.2-2.25zM215.4-12.05l-0.4 2.25-21.2-2.25zM216.25-16.85l-0.4 2.25-21.2-2.25zM211.45-21.65l-0.4 2.25-21.2-2.25zM212.25-26.45l-0.35 2.25-21.2-2.25zM214.55-7.25l-0.4 2.25-21.2-2.25z" fill="#a437db" fill-rule="nonzero" stroke="none" stroke-width="1" stroke-linecap="butt" stroke-linejoin="miter" stroke-miterlimit="10" stroke-dasharray="" stroke-dashoffset="0" font-family="none" font-weight="none" font-size="none" text-anchor="none" style="mix-blend-mode: normal" data-fill-palette-color="primary" opacity="1"></path><path d="M27.9 15l-1 5.95h-6.6l-1.7 9.6h-8.4l4.6-26.45h16.65l-2.3 7.5h-7.25l-0.6 3.4zM9 28.15l-0.4 2.25-21.2-2.25zM10.7 18.5l-0.4 2.25-21.2-2.25zM11.55 13.7l-0.4 2.25-21.2-2.25zM12.4 8.9l-0.4 2.25-21.2-2.25zM13.2 4.1l-0.35 2.25-21.2-2.25zM9.85 23.3l-0.4 2.25-21.2-2.25zM48.5 30.55h-8.75l4.6-26.45h8.8zM38.5 28.15l-0.4 2.25-21.2-2.25zM40.2 18.5l-0.4 2.25-21.2-2.25zM41.05 13.7l-0.4 2.25-21.2-2.25zM41.9 8.9l-0.4 2.25-21.2-2.25zM42.7 4.1l-0.35 2.25-21.2-2.25zM39.35 23.3l-0.4 2.25-21.2-2.25zM86.5 30.55h-6.8l-5.15-9.9h-0.2l-1.75 9.9h-8.4l4.6-26.45h6.8l5.2 9.85h0.3l1.7-9.85h8.35zM62.95 28.15l-0.4 2.25-21.2-2.25zM64.65 18.5l-0.4 2.25-21.2-2.25zM65.5 13.7l-0.4 2.25-21.2-2.25zM66.35 8.9l-0.4 2.25-21.2-2.25zM67.15 4.1l-0.35 2.25-21.2-2.25zM63.8 23.3l-0.4 2.25-21.2-2.25zM125.2 15l-2.5 14.15c-3.4 1.333-6.867 2-10.4 2-3.533 0-6.05-0.693-7.55-2.08-1.5-1.38-2.25-3.52-2.25-6.42v0c0-1.433 0.233-3.483 0.7-6.15 0.467-2.667 1.183-4.95 2.15-6.85v0c2.1-4.033 6.35-6.05 12.75-6.05v0c3.733 0 6.333 0.367 7.8 1.1v0l-2.55 6.95c-2.1-0.467-3.99-0.7-5.67-0.7-1.687 0-2.88 0.117-3.58 0.35-0.7 0.233-1.117 0.683-1.25 1.35v0l-2.1 11.5h2.3c0.833 0 1.477-0.093 1.93-0.28 0.447-0.18 0.72-0.587 0.82-1.22v0l0.35-1.95h-2.05l1-5.7zM81.35 18.5h19.95c-0.133 1.033-0.217 1.733-0.25 2.1v0zM82.25 13.7h20l-0.45 2.1zM81.55 23.3h19.45c0 0.533 0.067 1.233 0.2 2.1v0zM84.25 8.9h19.75c-0.4 0.867-0.683 1.533-0.85 2v0zM85.9 28.15h16.15c0.4 0.8 0.833 1.417 1.3 1.85v0zM90.95 4.1h17.4c-0.8 0.467-1.483 1.017-2.05 1.65v0zM156.05 15l-0.85 4.8h-7.45l-0.6 3.4h9.25l-1.3 7.35h-17.65l4.6-26.45h17.6l-2.35 7.5h-8.15l-0.6 3.4zM136.2 28.15l-0.4 2.25-21.2-2.25zM137.9 18.5l-0.4 2.25-21.2-2.25zM138.75 13.7l-0.4 2.25-21.2-2.25zM139.6 8.9l-0.4 2.25-21.2-2.25zM140.4 4.1l-0.35 2.25-21.2-2.25zM137.05 23.3l-0.4 2.25-21.2-2.25zM174.85 4.1h12.7c4.867 0 7.3 2.2 7.3 6.6v0c0 2-0.4 4.073-1.2 6.22-0.8 2.153-2.15 3.763-4.05 4.83v0l2.85 8.8h-9.35l-1.9-7.7h-1.2l-1.35 7.7h-8.4zM185.4 14.5l0.3-1.75c0-0.033 0.017-0.2 0.05-0.5v0c0-0.567-0.883-0.85-2.65-0.85v0h-1.1l-0.8 4.6h1.6c1.533 0 2.4-0.5 2.6-1.5zM169 28.15l-0.4 2.25-21.2-2.25zM170.7 18.5l-0.4 2.25-21.2-2.25zM171.55 13.7l-0.4 2.25-21.2-2.25zM172.4 8.9l-0.4 2.25-21.2-2.25zM173.2 4.1l-0.35 2.25-21.2-2.25zM169.85 23.3l-0.4 2.25-21.2-2.25z" fill="#a437db" fill-rule="nonzero" stroke="none" stroke-width="1" stroke-linecap="butt" stroke-linejoin="miter" stroke-miterlimit="10" stroke-dasharray="" stroke-dashoffset="0" font-family="none" font-weight="none" font-size="none" text-anchor="none" style="mix-blend-mode: normal" data-fill-palette-color="primary" opacity="1"></path></g></svg></g></svg></g></svg></g></svg></g></svg></g><defs></defs></svg><rect width="395.52" height="98.13714517766498" fill="none" stroke="none" visibility="hidden"></rect></g></svg></g></svg>